<svg width="21" height="22" viewBox="0 0 21 22" fill="none" xmlns="http://www.w3.org/2000/svg">
<path id="Vector" d="M8.3997 0.381912C8.53601 0.545177 8.61951 0.744742 8.63946 0.954967C8.65942 1.16519 8.61493 1.37648 8.5117 1.56168C7.70188 3.02106 7.27917 4.6572 7.28254 6.31925C7.28254 11.8482 11.8716 16.3253 17.5274 16.3253C18.2666 16.3244 18.9819 16.251 19.6735 16.1053C19.8851 16.0608 20.1053 16.0783 20.3068 16.1555C20.5084 16.2328 20.6824 16.3664 20.8075 16.5398C20.9397 16.7203 21.0072 16.9388 20.9994 17.161C20.9915 17.3832 20.9088 17.5966 20.7641 17.7677C19.666 19.0923 18.2808 20.1597 16.7095 20.8918C15.1382 21.624 13.4204 22.0026 11.6812 22C5.22742 22 0 16.8932 0 10.6011C0 5.86549 2.9595 1.80368 7.17335 0.0821578C7.38318 -0.00543091 7.61634 -0.0235554 7.83758 0.0305233C8.05883 0.084602 8.25614 0.207945 8.3997 0.381912Z" fill="#B40FE7"/>
</svg>
